# xmcd
#
# Track frame offsets: 
#        150
#        19291
#        40596
#        55001
#        73874
#        90565
#        110694
#        126492
#        162063
#        175436
#        194414
#
# Disc length: 2906 seconds
#
# Revision: 1
# Processed by: cddbd v1.5.2PL0 Copyright (c) Steve Scherf et al.
# Submitted via: ExactAudioCopy v1.0b3
#
DISCID=980b580b
DTITLE=Robby Z - I'm Your Man
DYEAR=2001
DGENRE=Blues
TTITLE0=Is It You
TTITLE1=When Does It End
TTITLE2=Can't Live Without You
TTITLE3=Play
TTITLE4=Leaving Today
TTITLE5=Beautiful Woman
TTITLE6=I Gotta Know
TTITLE7=You Were Wrong
TTITLE8=Turn Out The Light
TTITLE9=There's My Baby
TTITLE10=When Does It End (Reprise)
EXTD=
EXTT0=
EXTT1=
EXTT2=
EXTT3=
EXTT4=
EXTT5=
EXTT6=
EXTT7=
EXTT8=
EXTT9=
EXTT10=
PLAYORDER=
